<?xml version="1.0" encoding="UTF-8"?>
<svg xmlns="http://www.w3.org/2000/svg" xmlns:xlink="http://www.w3.org/1999/xlink" width="700" height="700" viewBox="0 0 700 700">
<defs>
<g>
<g id="glyph-0-0-6d1b3c43">
<path d="M 18.390625 -14.65625 C 18.390625 -15.515625 17.640625 -15.515625 16.953125 -15.515625 L 6.875 -15.515625 C 6.15625 -15.515625 4.75 -15.515625 3.171875 -13.828125 C 1.984375 -12.53125 0.96875 -10.796875 0.96875 -10.578125 C 0.96875 -10.578125 0.96875 -10.21875 1.40625 -10.21875 C 1.6875 -10.21875 1.765625 -10.375 1.984375 -10.65625 C 3.75 -13.421875 5.796875 -13.421875 6.546875 -13.421875 L 9.546875 -13.421875 L 6.015625 -1.875 C 5.875 -1.4375 5.65625 -0.6875 5.65625 -0.546875 C 5.65625 -0.140625 5.90625 0.4375 6.703125 0.4375 C 7.890625 0.4375 8.0625 -0.578125 8.171875 -1.109375 L 10.578125 -13.421875 L 16.625 -13.421875 C 17.09375 -13.421875 18.390625 -13.421875 18.390625 -14.65625 Z M 18.390625 -14.65625 "/>
</g>
<g id="glyph-1-0-6d1b3c43">
<path d="M 9.53125 -1.03125 C 11.03125 -1.03125 12.148438 -1.847656 12.890625 -3.484375 C 13.628906 -5.128906 14 -7.601562 14 -10.90625 C 14 -14.226562 13.628906 -16.707031 12.890625 -18.34375 C 12.148438 -19.988281 11.03125 -20.8125 9.53125 -20.8125 C 8.039062 -20.8125 6.921875 -19.988281 6.171875 -18.34375 C 5.429688 -16.707031 5.0625 -14.226562 5.0625 -10.90625 C 5.0625 -7.601562 5.429688 -5.128906 6.171875 -3.484375 C 6.921875 -1.847656 8.039062 -1.03125 9.53125 -1.03125 Z M 9.53125 0.421875 C 7.164062 0.421875 5.316406 -0.570312 3.984375 -2.5625 C 2.648438 -4.550781 1.984375 -7.332031 1.984375 -10.90625 C 1.984375 -14.5 2.648438 -17.289062 3.984375 -19.28125 C 5.316406 -21.269531 7.164062 -22.265625 9.53125 -22.265625 C 11.914062 -22.265625 13.769531 -21.269531 15.09375 -19.28125 C 16.425781 -17.289062 17.09375 -14.5 17.09375 -10.90625 C 17.09375 -7.332031 16.425781 -4.550781 15.09375 -2.5625 C 13.769531 -0.570312 11.914062 0.421875 9.53125 0.421875 Z M 9.53125 0.421875 "/>
</g>
<g id="glyph-1-1-6d1b3c43">
<path d="M 4.265625 0 L 4.265625 -1.546875 L 8.078125 -1.546875 L 8.078125 -19.75 L 3.65625 -16.890625 L 3.65625 -18.8125 L 9 -22.265625 L 11.015625 -22.265625 L 11.015625 -1.546875 L 14.828125 -1.546875 L 14.828125 0 Z M 4.265625 0 "/>
</g>
<g id="glyph-1-2-6d1b3c43">
<path d="M 3.84375 -16.65625 L 2.203125 -16.65625 L 2.203125 -20.546875 C 3.242188 -21.109375 4.289062 -21.535156 5.34375 -21.828125 C 6.40625 -22.117188 7.445312 -22.265625 8.46875 -22.265625 C 10.738281 -22.265625 12.53125 -21.710938 13.84375 -20.609375 C 15.164062 -19.503906 15.828125 -18.003906 15.828125 -16.109375 C 15.828125 -13.972656 14.335938 -11.414062 11.359375 -8.4375 C 11.117188 -8.207031 10.941406 -8.035156 10.828125 -7.921875 L 5.296875 -2.40625 L 14.421875 -2.40625 L 14.421875 -5.09375 L 16.140625 -5.09375 L 16.140625 0 L 2.03125 0 L 2.03125 -1.59375 L 8.671875 -8.21875 C 10.140625 -9.6875 11.1875 -11.03125 11.8125 -12.25 C 12.4375 -13.476562 12.75 -14.765625 12.75 -16.109375 C 12.75 -17.585938 12.363281 -18.738281 11.59375 -19.5625 C 10.820312 -20.394531 9.765625 -20.8125 8.421875 -20.8125 C 7.023438 -20.8125 5.945312 -20.460938 5.1875 -19.765625 C 4.425781 -19.078125 3.976562 -18.039062 3.84375 -16.65625 Z M 3.84375 -16.65625 "/>
</g>
<g id="glyph-1-3-6d1b3c43">
<path d="M 2.921875 -20.953125 C 4.054688 -21.378906 5.148438 -21.703125 6.203125 -21.921875 C 7.253906 -22.148438 8.238281 -22.265625 9.15625 -22.265625 C 11.289062 -22.265625 12.957031 -21.800781 14.15625 -20.875 C 15.363281 -19.957031 15.96875 -18.675781 15.96875 -17.03125 C 15.96875 -15.71875 15.550781 -14.617188 14.71875 -13.734375 C 13.894531 -12.847656 12.71875 -12.25 11.1875 -11.9375 C 12.988281 -11.6875 14.382812 -11.035156 15.375 -9.984375 C 16.363281 -8.929688 16.859375 -7.570312 16.859375 -5.90625 C 16.859375 -3.863281 16.171875 -2.296875 14.796875 -1.203125 C 13.429688 -0.117188 11.457031 0.421875 8.875 0.421875 C 7.726562 0.421875 6.609375 0.296875 5.515625 0.046875 C 4.429688 -0.191406 3.351562 -0.5625 2.28125 -1.0625 L 2.28125 -5.296875 L 3.921875 -5.296875 C 4.023438 -3.890625 4.5 -2.828125 5.34375 -2.109375 C 6.195312 -1.390625 7.394531 -1.03125 8.9375 -1.03125 C 10.425781 -1.03125 11.601562 -1.460938 12.46875 -2.328125 C 13.332031 -3.191406 13.765625 -4.375 13.765625 -5.875 C 13.765625 -7.59375 13.320312 -8.894531 12.4375 -9.78125 C 11.550781 -10.664062 10.25 -11.109375 8.53125 -11.109375 L 7.140625 -11.109375 L 7.140625 -12.59375 L 7.859375 -12.59375 C 9.578125 -12.59375 10.863281 -12.945312 11.71875 -13.65625 C 12.570312 -14.363281 13 -15.429688 13 -16.859375 C 13 -18.140625 12.644531 -19.117188 11.9375 -19.796875 C 11.238281 -20.472656 10.226562 -20.8125 8.90625 -20.8125 C 7.582031 -20.8125 6.554688 -20.5 5.828125 -19.875 C 5.109375 -19.25 4.6875 -18.320312 4.5625 -17.09375 L 2.921875 -17.09375 Z M 2.921875 -20.953125 "/>
</g>
<g id="glyph-1-4-6d1b3c43">
<path d="M 10.46875 -7.40625 L 10.46875 -19.046875 L 3 -7.40625 Z M 16.921875 0 L 6.953125 0 L 6.953125 -1.546875 L 10.46875 -1.546875 L 10.46875 -5.84375 L 0.921875 -5.84375 L 0.921875 -7.4375 L 10.5 -22.265625 L 13.40625 -22.265625 L 13.40625 -7.40625 L 17.578125 -7.40625 L 17.578125 -5.84375 L 13.40625 -5.84375 L 13.40625 -1.546875 L 16.921875 -1.546875 Z M 16.921875 0 "/>
</g>
<g id="glyph-1-5-6d1b3c43">
<path d="M 15.09375 -21.875 L 15.09375 -19.46875 L 5.0625 -19.46875 L 5.0625 -13.203125 C 5.570312 -13.546875 6.164062 -13.804688 6.84375 -13.984375 C 7.519531 -14.160156 8.28125 -14.25 9.125 -14.25 C 11.488281 -14.25 13.351562 -13.59375 14.71875 -12.28125 C 16.082031 -10.976562 16.765625 -9.191406 16.765625 -6.921875 C 16.765625 -4.609375 16.070312 -2.804688 14.6875 -1.515625 C 13.3125 -0.222656 11.375 0.421875 8.875 0.421875 C 7.875 0.421875 6.84375 0.296875 5.78125 0.046875 C 4.726562 -0.191406 3.648438 -0.5625 2.546875 -1.0625 L 2.546875 -5.296875 L 4.203125 -5.296875 C 4.296875 -3.910156 4.738281 -2.851562 5.53125 -2.125 C 6.320312 -1.394531 7.4375 -1.03125 8.875 -1.03125 C 10.414062 -1.03125 11.601562 -1.535156 12.4375 -2.546875 C 13.269531 -3.566406 13.6875 -5.023438 13.6875 -6.921875 C 13.6875 -8.816406 13.269531 -10.269531 12.4375 -11.28125 C 11.613281 -12.289062 10.425781 -12.796875 8.875 -12.796875 C 8 -12.796875 7.222656 -12.640625 6.546875 -12.328125 C 5.878906 -12.015625 5.289062 -11.535156 4.78125 -10.890625 L 3.515625 -10.890625 L 3.515625 -21.875 Z M 15.09375 -21.875 "/>
</g>
<g id="glyph-1-6-6d1b3c43">
<path d="M 2.828125 -1.53125 C 2.828125 -2.070312 3.007812 -2.53125 3.375 -2.90625 C 3.75 -3.289062 4.21875 -3.484375 4.78125 -3.484375 C 5.3125 -3.484375 5.765625 -3.289062 6.140625 -2.90625 C 6.523438 -2.53125 6.71875 -2.070312 6.71875 -1.53125 C 6.71875 -0.988281 6.523438 -0.523438 6.140625 -0.140625 C 5.765625 0.234375 5.3125 0.421875 4.78125 0.421875 C 4.21875 0.421875 3.75 0.234375 3.375 -0.140625 C 3.007812 -0.515625 2.828125 -0.976562 2.828125 -1.53125 Z M 2.828125 -1.53125 "/>
</g>
<g id="glyph-1-7-6d1b3c43">
<path d="M 9.8125 -1.03125 C 11.1875 -1.03125 12.242188 -1.535156 12.984375 -2.546875 C 13.734375 -3.554688 14.109375 -5.007812 14.109375 -6.90625 C 14.109375 -8.789062 13.734375 -10.238281 12.984375 -11.25 C 12.242188 -12.269531 11.1875 -12.78125 9.8125 -12.78125 C 8.414062 -12.78125 7.347656 -12.289062 6.609375 -11.3125 C 5.878906 -10.332031 5.515625 -8.921875 5.515625 -7.078125 C 5.515625 -5.128906 5.882812 -3.632812 6.625 -2.59375 C 7.375 -1.550781 8.4375 -1.03125 9.8125 -1.03125 Z M 5.046875 -12.046875 C 5.703125 -12.773438 6.453125 -13.316406 7.296875 -13.671875 C 8.140625 -14.035156 9.085938 -14.21875 10.140625 -14.21875 C 12.316406 -14.21875 14.035156 -13.5625 15.296875 -12.25 C 16.566406 -10.945312 17.203125 -9.164062 17.203125 -6.90625 C 17.203125 -4.6875 16.519531 -2.910156 15.15625 -1.578125 C 13.789062 -0.242188 11.972656 0.421875 9.703125 0.421875 C 7.222656 0.421875 5.316406 -0.492188 3.984375 -2.328125 C 2.660156 -4.171875 2 -6.800781 2 -10.21875 C 2 -14.050781 2.785156 -17.015625 4.359375 -19.109375 C 5.929688 -21.210938 8.148438 -22.265625 11.015625 -22.265625 C 11.785156 -22.265625 12.59375 -22.191406 13.4375 -22.046875 C 14.289062 -21.898438 15.164062 -21.679688 16.0625 -21.390625 L 16.0625 -17.78125 L 14.40625 -17.78125 C 14.28125 -18.769531 13.898438 -19.519531 13.265625 -20.03125 C 12.628906 -20.550781 11.773438 -20.8125 10.703125 -20.8125 C 8.804688 -20.8125 7.394531 -20.09375 6.46875 -18.65625 C 5.539062 -17.226562 5.066406 -15.023438 5.046875 -12.046875 Z M 5.046875 -12.046875 "/>
</g>
<g id="glyph-2-0-6d1b3c43">
<path d="M -9.359375 -27.640625 C -9.640625 -27.640625 -9.828125 -27.5 -9.828125 -27.1875 C -9.828125 -26.0625 -9.71875 -24.84375 -9.71875 -23.6875 C -9.71875 -22.140625 -9.828125 -20.515625 -9.828125 -18.96875 C -9.828125 -18.6875 -9.828125 -18.21875 -9.109375 -18.21875 C -8.71875 -18.21875 -8.71875 -18.609375 -8.71875 -19.15625 L -8.71875 -19.4375 C -8.71875 -19.90625 -8.671875 -20.515625 -8.640625 -20.984375 C -8.53125 -21.75 -8.5 -22.03125 -7.984375 -22.03125 C -7.84375 -22.03125 -7.78125 -22.03125 -6.765625 -21.75 C -3.5625 -20.953125 -3.171875 -20.875 -2.15625 -19.796875 C -0.75 -18.25 -0.328125 -16.265625 -0.328125 -14.90625 C -0.328125 -11.484375 -2.703125 -8.53125 -7.484375 -8.53125 C -9.578125 -8.53125 -15.296875 -9.390625 -19.296875 -12.3125 C -22.609375 -14.765625 -24.265625 -18.078125 -24.265625 -20.84375 C -24.265625 -24.65625 -20.8125 -25.953125 -17.671875 -25.953125 C -16.734375 -25.953125 -15.59375 -25.78125 -15.484375 -25.78125 C -15.125 -25.78125 -15.125 -26.140625 -15.125 -26.3125 C -15.125 -26.71875 -15.15625 -26.8125 -15.765625 -26.96875 L -24.515625 -29.15625 C -24.65625 -29.203125 -24.875 -29.234375 -25.015625 -29.234375 C -25.015625 -29.234375 -25.375 -29.203125 -25.375 -28.84375 C -25.375 -28.84375 -25.375 -28.578125 -24.984375 -28.265625 L -22.3125 -25.984375 C -24.796875 -24.4375 -25.375 -22.359375 -25.375 -20.5625 C -25.375 -13.140625 -17.28125 -5.40625 -8.8125 -5.40625 C -3.03125 -5.40625 0.796875 -9.140625 0.796875 -14.25 C 0.796875 -17.5625 -0.859375 -20.203125 -2.203125 -21.234375 C -1.328125 -21.5625 -0.03125 -22.359375 -0.03125 -22.75 C -0.03125 -23 -0.25 -23.078125 -0.640625 -23.1875 L -7.53125 -24.90625 C -8.359375 -25.125 -8.71875 -25.203125 -8.71875 -26.78125 C -8.71875 -27.25 -8.71875 -27.640625 -9.359375 -27.640625 Z M -9.359375 -27.640625 "/>
</g>
<g id="glyph-3-0-6d1b3c43">
<path d="M -8.78125 -12.25 C -9.3125 -12.25 -9.3125 -11.796875 -9.3125 -11.40625 L -9.3125 -6.484375 C -9.3125 -3.21875 -5.75 -0.828125 -3.171875 -0.828125 C -1.28125 -0.828125 0.234375 -2.09375 0.234375 -4.0625 C 0.234375 -6.609375 -2.375 -9.484375 -5.703125 -9.484375 C -6.0625 -9.484375 -7.109375 -9.484375 -8.046875 -8.8125 L -8.046875 -11.1875 C -8.046875 -11.46875 -8.046875 -12.25 -8.78125 -12.25 Z M -5.953125 -8.09375 C -4.9375 -8.09375 -3.171875 -7.671875 -2.078125 -6.9375 C -0.796875 -6.09375 -0.234375 -4.921875 -0.234375 -4.078125 C -0.234375 -3.015625 -1.015625 -2.15625 -2.5625 -2.15625 C -3.21875 -2.15625 -4.984375 -2.421875 -6.265625 -3.171875 C -7.75 -4.078125 -8.046875 -5.375 -8.046875 -6.109375 C -8.046875 -7.921875 -6.625 -8.09375 -5.953125 -8.09375 Z M -5.953125 -8.09375 "/>
</g>
<g id="glyph-4-0-6d1b3c43">
<path d="M 8.5625 -11.953125 C 8.453125 -11.953125 8.359375 -11.875 8.28125 -11.8125 C 5.46875 -8.0625 -1.734375 -5.578125 -7.484375 -5.578125 L -10.515625 -5.578125 C -16.265625 -5.578125 -23.46875 -8.0625 -26.28125 -11.8125 C -26.359375 -11.875 -26.453125 -11.953125 -26.5625 -11.953125 C -26.75 -11.953125 -26.921875 -11.765625 -26.921875 -11.59375 C -26.921875 -11.515625 -26.890625 -11.453125 -26.859375 -11.375 C -23.875 -7.421875 -16.671875 -3.640625 -10.515625 -3.640625 L -7.484375 -3.640625 C -1.328125 -3.640625 5.875 -7.421875 8.859375 -11.375 C 8.890625 -11.453125 8.921875 -11.515625 8.921875 -11.59375 C 8.921875 -11.765625 8.75 -11.953125 8.5625 -11.953125 Z M 8.5625 -11.953125 "/>
</g>
<g id="glyph-5-0-6d1b3c43">
<path d="M -14.65625 -18.390625 C -15.515625 -18.390625 -15.515625 -17.640625 -15.515625 -16.953125 L -15.515625 -6.875 C -15.515625 -6.15625 -15.515625 -4.75 -13.828125 -3.171875 C -12.53125 -1.984375 -10.796875 -0.96875 -10.578125 -0.96875 C -10.578125 -0.96875 -10.21875 -0.96875 -10.21875 -1.40625 C -10.21875 -1.6875 -10.375 -1.765625 -10.65625 -1.984375 C -13.421875 -3.75 -13.421875 -5.796875 -13.421875 -6.546875 L -13.421875 -9.546875 L -1.875 -6.015625 C -1.4375 -5.875 -0.6875 -5.65625 -0.546875 -5.65625 C -0.140625 -5.65625 0.4375 -5.90625 0.4375 -6.703125 C 0.4375 -7.890625 -0.578125 -8.0625 -1.109375 -8.171875 L -13.421875 -10.578125 L -13.421875 -16.625 C -13.421875 -17.09375 -13.421875 -18.390625 -14.65625 -18.390625 Z M -14.65625 -18.390625 "/>
</g>
<g id="glyph-6-0-6d1b3c43">
<path d="M -7.484375 -10.375 L -10.515625 -10.375 C -16.671875 -10.375 -23.875 -6.59375 -26.859375 -2.625 C -26.890625 -2.5625 -26.921875 -2.484375 -26.921875 -2.40625 C -26.921875 -2.234375 -26.75 -2.046875 -26.5625 -2.046875 C -26.453125 -2.046875 -26.359375 -2.125 -26.28125 -2.203125 C -23.46875 -5.9375 -16.265625 -8.421875 -10.515625 -8.421875 L -7.484375 -8.421875 C -1.734375 -8.421875 5.46875 -5.9375 8.28125 -2.203125 C 8.359375 -2.125 8.453125 -2.046875 8.5625 -2.046875 C 8.75 -2.046875 8.921875 -2.234375 8.921875 -2.40625 C 8.921875 -2.484375 8.890625 -2.5625 8.859375 -2.625 C 5.875 -6.59375 -1.328125 -10.375 -7.484375 -10.375 Z M -7.484375 -10.375 "/>
</g>
<g id="glyph-7-0-6d1b3c43">
<path d="M 1.875 0 L 1.875 -1.765625 L 5.03125 -1.765625 L 5.03125 -23.015625 L 1.875 -23.015625 L 1.875 -24.78125 L 21.828125 -24.78125 L 21.828125 -19.28125 L 19.796875 -19.28125 L 19.796875 -22.75 L 8.40625 -22.75 L 8.40625 -14.4375 L 16.515625 -14.4375 L 16.515625 -17.546875 L 18.5625 -17.546875 L 18.5625 -9.3125 L 16.515625 -9.3125 L 16.515625 -12.421875 L 8.40625 -12.421875 L 8.40625 -2.046875 L 20.0625 -2.046875 L 20.0625 -5.515625 L 22.09375 -5.515625 L 22.09375 0 Z M 1.875 0 "/>
</g>
<g id="glyph-7-1-6d1b3c43">
<path d="M 9.890625 -10.78125 L 13.59375 -15.875 L 11.21875 -15.875 L 11.21875 -17.640625 L 18.015625 -17.640625 L 18.015625 -15.875 L 15.671875 -15.875 L 10.9375 -9.34375 L 16.453125 -1.765625 L 18.765625 -1.765625 L 18.765625 0 L 10.609375 0 L 10.609375 -1.765625 L 12.84375 -1.765625 L 9.015625 -7.046875 L 5.15625 -1.765625 L 7.453125 -1.765625 L 7.453125 0 L 0.75 0 L 0.75 -1.765625 L 3.09375 -1.765625 L 7.953125 -8.46875 L 2.59375 -15.875 L 0.421875 -15.875 L 0.421875 -17.640625 L 8.296875 -17.640625 L 8.296875 -15.875 L 6.1875 -15.875 Z M 9.890625 -10.78125 "/>
</g>
<g id="glyph-7-2-6d1b3c43">
<path d="M 13.53125 -5.546875 L 13.53125 -9.28125 L 9.59375 -9.28125 C 8.082031 -9.28125 6.953125 -8.953125 6.203125 -8.296875 C 5.460938 -7.648438 5.09375 -6.648438 5.09375 -5.296875 C 5.09375 -4.066406 5.46875 -3.09375 6.21875 -2.375 C 6.976562 -1.65625 8 -1.296875 9.28125 -1.296875 C 10.550781 -1.296875 11.578125 -1.6875 12.359375 -2.46875 C 13.140625 -3.257812 13.53125 -4.285156 13.53125 -5.546875 Z M 16.578125 -11.03125 L 16.578125 -1.765625 L 19.3125 -1.765625 L 19.3125 0 L 13.53125 0 L 13.53125 -1.90625 C 12.851562 -1.09375 12.070312 -0.488281 11.1875 -0.09375 C 10.300781 0.289062 9.265625 0.484375 8.078125 0.484375 C 6.117188 0.484375 4.5625 -0.0351562 3.40625 -1.078125 C 2.257812 -2.117188 1.6875 -3.523438 1.6875 -5.296875 C 1.6875 -7.117188 2.34375 -8.535156 3.65625 -9.546875 C 4.976562 -10.554688 6.84375 -11.0625 9.25 -11.0625 L 13.53125 -11.0625 L 13.53125 -12.265625 C 13.53125 -13.609375 13.125 -14.644531 12.3125 -15.375 C 11.5 -16.113281 10.351562 -16.484375 8.875 -16.484375 C 7.664062 -16.484375 6.695312 -16.207031 5.96875 -15.65625 C 5.25 -15.101562 4.800781 -14.285156 4.625 -13.203125 L 3.0625 -13.203125 L 3.0625 -16.765625 C 4.125 -17.222656 5.15625 -17.5625 6.15625 -17.78125 C 7.15625 -18.007812 8.128906 -18.125 9.078125 -18.125 C 11.523438 -18.125 13.382812 -17.519531 14.65625 -16.3125 C 15.9375 -15.101562 16.578125 -13.34375 16.578125 -11.03125 Z M 16.578125 -11.03125 "/>
</g>
<g id="glyph-7-3-6d1b3c43">
<path d="M 17.484375 -5.296875 C 17.046875 -3.410156 16.210938 -1.972656 14.984375 -0.984375 C 13.765625 -0.00390625 12.179688 0.484375 10.234375 0.484375 C 7.660156 0.484375 5.59375 -0.363281 4.03125 -2.0625 C 2.46875 -3.757812 1.6875 -6.015625 1.6875 -8.828125 C 1.6875 -11.648438 2.46875 -13.90625 4.03125 -15.59375 C 5.59375 -17.28125 7.660156 -18.125 10.234375 -18.125 C 11.347656 -18.125 12.457031 -17.992188 13.5625 -17.734375 C 14.664062 -17.472656 15.78125 -17.078125 16.90625 -16.546875 L 16.90625 -12.03125 L 15.125 -12.03125 C 14.894531 -13.582031 14.390625 -14.710938 13.609375 -15.421875 C 12.828125 -16.128906 11.710938 -16.484375 10.265625 -16.484375 C 8.609375 -16.484375 7.359375 -15.84375 6.515625 -14.5625 C 5.679688 -13.289062 5.265625 -11.378906 5.265625 -8.828125 C 5.265625 -6.285156 5.679688 -4.367188 6.515625 -3.078125 C 7.347656 -1.796875 8.597656 -1.15625 10.265625 -1.15625 C 11.578125 -1.15625 12.625 -1.5 13.40625 -2.1875 C 14.195312 -2.875 14.738281 -3.910156 15.03125 -5.296875 Z M 17.484375 -5.296875 "/>
</g>
<g id="glyph-7-4-6d1b3c43">
<path d="M 3.671875 -15.875 L 0.984375 -15.875 L 0.984375 -17.640625 L 3.671875 -17.640625 L 3.671875 -23.125 L 6.734375 -23.125 L 6.734375 -17.640625 L 12.484375 -17.640625 L 12.484375 -15.875 L 6.734375 -15.875 L 6.734375 -4.671875 C 6.734375 -3.171875 6.878906 -2.207031 7.171875 -1.78125 C 7.460938 -1.363281 7.992188 -1.15625 8.765625 -1.15625 C 9.566406 -1.15625 10.148438 -1.390625 10.515625 -1.859375 C 10.878906 -2.335938 11.070312 -3.101562 11.09375 -4.15625 L 13.390625 -4.15625 C 13.304688 -2.550781 12.867188 -1.375 12.078125 -0.625 C 11.296875 0.113281 10.101562 0.484375 8.5 0.484375 C 6.738281 0.484375 5.492188 0.09375 4.765625 -0.6875 C 4.035156 -1.46875 3.671875 -2.796875 3.671875 -4.671875 Z M 3.671875 -15.875 "/>
</g>
<g id="glyph-7-5-6d1b3c43">
<path d="M 1.875 0 L 1.875 -1.765625 L 5.03125 -1.765625 L 5.03125 -23.015625 L 1.6875 -23.015625 L 1.6875 -24.78125 L 8.921875 -24.78125 L 17.609375 -7.140625 L 26.3125 -24.78125 L 33.09375 -24.78125 L 33.09375 -23.015625 L 29.78125 -23.015625 L 29.78125 -1.765625 L 32.953125 -1.765625 L 32.953125 0 L 23.265625 0 L 23.265625 -1.765625 L 26.40625 -1.765625 L 26.40625 -20.921875 L 17.90625 -3.640625 L 15.578125 -3.640625 L 7.078125 -20.921875 L 7.078125 -1.765625 L 10.234375 -1.765625 L 10.234375 0 Z M 1.875 0 "/>
</g>
<g id="glyph-7-6-6d1b3c43">
<path d="M 18.421875 -8.5 L 5.265625 -8.5 L 5.265625 -8.375 C 5.265625 -5.988281 5.710938 -4.1875 6.609375 -2.96875 C 7.503906 -1.757812 8.828125 -1.15625 10.578125 -1.15625 C 11.910156 -1.15625 13.003906 -1.503906 13.859375 -2.203125 C 14.722656 -2.910156 15.328125 -3.957031 15.671875 -5.34375 L 18.125 -5.34375 C 17.644531 -3.40625 16.75 -1.945312 15.4375 -0.96875 C 14.125 0 12.398438 0.484375 10.265625 0.484375 C 7.679688 0.484375 5.601562 -0.363281 4.03125 -2.0625 C 2.46875 -3.757812 1.6875 -6.015625 1.6875 -8.828125 C 1.6875 -11.617188 2.457031 -13.863281 4 -15.5625 C 5.539062 -17.269531 7.5625 -18.125 10.0625 -18.125 C 12.726562 -18.125 14.773438 -17.300781 16.203125 -15.65625 C 17.628906 -14.019531 18.367188 -11.632812 18.421875 -8.5 Z M 14.828125 -10.265625 C 14.753906 -12.316406 14.316406 -13.863281 13.515625 -14.90625 C 12.710938 -15.957031 11.5625 -16.484375 10.0625 -16.484375 C 8.65625 -16.484375 7.546875 -15.957031 6.734375 -14.90625 C 5.929688 -13.851562 5.441406 -12.304688 5.265625 -10.265625 Z M 14.828125 -10.265625 "/>
</g>
<g id="glyph-7-7-6d1b3c43">
<path d="M 1.390625 0 L 1.390625 -1.765625 L 4.15625 -1.765625 L 4.15625 -15.875 L 1.234375 -15.875 L 1.234375 -17.640625 L 7.203125 -17.640625 L 7.203125 -14.515625 C 7.765625 -15.703125 8.5 -16.597656 9.40625 -17.203125 C 10.3125 -17.816406 11.359375 -18.125 12.546875 -18.125 C 14.492188 -18.125 15.925781 -17.566406 16.84375 -16.453125 C 17.769531 -15.335938 18.234375 -13.59375 18.234375 -11.21875 L 18.234375 -1.765625 L 20.953125 -1.765625 L 20.953125 0 L 12.515625 0 L 12.515625 -1.765625 L 15.15625 -1.765625 L 15.15625 -10.265625 C 15.15625 -12.421875 14.890625 -13.898438 14.359375 -14.703125 C 13.828125 -15.503906 12.894531 -15.90625 11.5625 -15.90625 C 10.144531 -15.90625 9.0625 -15.382812 8.3125 -14.34375 C 7.570312 -13.3125 7.203125 -11.804688 7.203125 -9.828125 L 7.203125 -1.765625 L 9.859375 -1.765625 L 9.859375 0 Z M 1.390625 0 "/>
</g>
</g>
<clipPath id="clip-0-6d1b3c43">
<path clip-rule="nonzero" d="M 112 42 L 690 42 L 690 557 L 112 557 Z M 112 42 "/>
</clipPath>
<clipPath id="clip-1-6d1b3c43">
<path clip-rule="nonzero" d="M 112 49 L 690 49 L 690 578 L 112 578 Z M 112 49 "/>
</clipPath>
<clipPath id="clip-2-6d1b3c43">
<path clip-rule="nonzero" d="M 112 41 L 690 41 L 690 534 L 112 534 Z M 112 41 "/>
</clipPath>
<clipPath id="clip-3-6d1b3c43">
<path clip-rule="nonzero" d="M 112 43 L 690 43 L 690 521 L 112 521 Z M 112 43 "/>
</clipPath>
</defs>
<rect x="-70" y="-70" width="840" height="840" fill="rgb(100%, 100%, 100%)" fill-opacity="1"/>
<path fill-rule="nonzero" fill="rgb(100%, 100%, 100%)" fill-opacity="1" d="M 112 598 L 690 598 L 690 21 L 112 21 Z M 112 598 "/>
<path fill="none" stroke-width="1" stroke-linecap="butt" stroke-linejoin="miter" stroke="rgb(0%, 0%, 0%)" stroke-opacity="0.12" stroke-miterlimit="1.154701" d="M 112 598 L 112 21 "/>
<path fill="none" stroke-width="1" stroke-linecap="butt" stroke-linejoin="miter" stroke="rgb(0%, 0%, 0%)" stroke-opacity="0.12" stroke-miterlimit="1.154701" d="M 227.601562 598 L 227.601562 21 "/>
<path fill="none" stroke-width="1" stroke-linecap="butt" stroke-linejoin="miter" stroke="rgb(0%, 0%, 0%)" stroke-opacity="0.12" stroke-miterlimit="1.154701" d="M 343.199219 598 L 343.199219 21 "/>
<path fill="none" stroke-width="1" stroke-linecap="butt" stroke-linejoin="miter" stroke="rgb(0%, 0%, 0%)" stroke-opacity="0.12" stroke-miterlimit="1.154701" d="M 458.800781 598 L 458.800781 21 "/>
<path fill="none" stroke-width="1" stroke-linecap="butt" stroke-linejoin="miter" stroke="rgb(0%, 0%, 0%)" stroke-opacity="0.12" stroke-miterlimit="1.154701" d="M 574.398438 598 L 574.398438 21 "/>
<path fill="none" stroke-width="1" stroke-linecap="butt" stroke-linejoin="miter" stroke="rgb(0%, 0%, 0%)" stroke-opacity="0.12" stroke-miterlimit="1.154701" d="M 690 598 L 690 21 "/>
<path fill="none" stroke-width="1" stroke-linecap="butt" stroke-linejoin="miter" stroke="rgb(0%, 0%, 0%)" stroke-opacity="0.12" stroke-miterlimit="1.154701" d="M 112 557.578125 L 690 557.578125 "/>
<path fill="none" stroke-width="1" stroke-linecap="butt" stroke-linejoin="miter" stroke="rgb(0%, 0%, 0%)" stroke-opacity="0.12" stroke-miterlimit="1.154701" d="M 112 419.726562 L 690 419.726562 "/>
<path fill="none" stroke-width="1" stroke-linecap="butt" stroke-linejoin="miter" stroke="rgb(0%, 0%, 0%)" stroke-opacity="0.12" stroke-miterlimit="1.154701" d="M 112 281.878906 L 690 281.878906 "/>
<path fill="none" stroke-width="1" stroke-linecap="butt" stroke-linejoin="miter" stroke="rgb(0%, 0%, 0%)" stroke-opacity="0.12" stroke-miterlimit="1.154701" d="M 112 144.03125 L 690 144.03125 "/>
<g fill="rgb(0%, 0%, 0%)" fill-opacity="1">
<use xlink:href="#glyph-0-0-6d1b3c43" x="393.133996" y="672.937874"/>
</g>
<g fill="rgb(0%, 0%, 0%)" fill-opacity="1">
<use xlink:href="#glyph-1-0-6d1b3c43" x="102.456542" y="633.84668"/>
</g>
<g fill="rgb(0%, 0%, 0%)" fill-opacity="1">
<use xlink:href="#glyph-1-1-6d1b3c43" x="218.056547" y="633.84668"/>
</g>
<g fill="rgb(0%, 0%, 0%)" fill-opacity="1">
<use xlink:href="#glyph-1-2-6d1b3c43" x="333.656552" y="633.84668"/>
</g>
<g fill="rgb(0%, 0%, 0%)" fill-opacity="1">
<use xlink:href="#glyph-1-3-6d1b3c43" x="449.256526" y="633.84668"/>
</g>
<g fill="rgb(0%, 0%, 0%)" fill-opacity="1">
<use xlink:href="#glyph-1-4-6d1b3c43" x="564.856561" y="633.84668"/>
</g>
<g fill="rgb(0%, 0%, 0%)" fill-opacity="1">
<use xlink:href="#glyph-1-5-6d1b3c43" x="680.456536" y="633.84668"/>
</g>
<g fill="rgb(0%, 0%, 0%)" fill-opacity="1">
<use xlink:href="#glyph-2-0-6d1b3c43" x="37.899637" y="351.742397"/>
</g>
<g fill="rgb(0%, 0%, 0%)" fill-opacity="1">
<use xlink:href="#glyph-3-0-6d1b3c43" x="45.099638" y="323.331201"/>
</g>
<g fill="rgb(0%, 0%, 0%)" fill-opacity="1">
<use xlink:href="#glyph-4-0-6d1b3c43" x="37.89964" y="310.997604"/>
</g>
<g fill="rgb(0%, 0%, 0%)" fill-opacity="1">
<use xlink:href="#glyph-5-0-6d1b3c43" x="37.899641" y="296.993603"/>
</g>
<g fill="rgb(0%, 0%, 0%)" fill-opacity="1">
<use xlink:href="#glyph-6-0-6d1b3c43" x="37.899642" y="281.261607"/>
</g>
<g fill="rgb(0%, 0%, 0%)" fill-opacity="1">
<use xlink:href="#glyph-1-0-6d1b3c43" x="54.290038" y="567.962602"/>
</g>
<g fill="rgb(0%, 0%, 0%)" fill-opacity="1">
<use xlink:href="#glyph-1-6-6d1b3c43" x="73.376952" y="567.962602"/>
</g>
<g fill="rgb(0%, 0%, 0%)" fill-opacity="1">
<use xlink:href="#glyph-1-3-6d1b3c43" x="82.913085" y="567.962602"/>
</g>
<g fill="rgb(0%, 0%, 0%)" fill-opacity="1">
<use xlink:href="#glyph-1-0-6d1b3c43" x="54.290038" y="430.11423"/>
</g>
<g fill="rgb(0%, 0%, 0%)" fill-opacity="1">
<use xlink:href="#glyph-1-6-6d1b3c43" x="73.376952" y="430.11423"/>
</g>
<g fill="rgb(0%, 0%, 0%)" fill-opacity="1">
<use xlink:href="#glyph-1-4-6d1b3c43" x="82.913085" y="430.11423"/>
</g>
<g fill="rgb(0%, 0%, 0%)" fill-opacity="1">
<use xlink:href="#glyph-1-0-6d1b3c43" x="54.290038" y="292.265874"/>
</g>
<g fill="rgb(0%, 0%, 0%)" fill-opacity="1">
<use xlink:href="#glyph-1-6-6d1b3c43" x="73.376952" y="292.265874"/>
</g>
<g fill="rgb(0%, 0%, 0%)" fill-opacity="1">
<use xlink:href="#glyph-1-5-6d1b3c43" x="82.913085" y="292.265874"/>
</g>
<g fill="rgb(0%, 0%, 0%)" fill-opacity="1">
<use xlink:href="#glyph-1-0-6d1b3c43" x="54.290038" y="154.417486"/>
</g>
<g fill="rgb(0%, 0%, 0%)" fill-opacity="1">
<use xlink:href="#glyph-1-6-6d1b3c43" x="73.376952" y="154.417486"/>
</g>
<g fill="rgb(0%, 0%, 0%)" fill-opacity="1">
<use xlink:href="#glyph-1-7-6d1b3c43" x="82.913085" y="154.417486"/>
</g>
<path fill-rule="nonzero" fill="rgb(100%, 0%, 0%)" fill-opacity="0.2" d="M 112 508.902344 L 117.78125 475.886719 L 123.558594 484.789062 L 129.339844 521.941406 L 135.121094 504.039062 L 140.898438 472.757812 L 146.679688 520.226562 L 152.460938 485.667969 L 158.238281 481.914062 L 164.019531 497.683594 L 169.800781 464.273438 L 175.578125 502.003906 L 181.359375 466.269531 L 187.140625 490.671875 L 192.921875 509.5625 L 198.699219 485.886719 L 204.480469 459.558594 L 210.261719 513.136719 L 216.039062 507.09375 L 221.820312 495.703125 L 227.601562 473.417969 L 233.378906 473.308594 L 239.160156 505.933594 L 244.941406 511.867188 L 250.71875 506.242188 L 256.5 487.910156 L 262.28125 494.328125 L 268.058594 490.863281 L 273.839844 482.957031 L 279.621094 460.933594 L 285.398438 493 L 291.179688 506.390625 L 296.960938 498.589844 L 302.738281 501.453125 L 308.519531 493.039062 L 314.300781 526.050781 L 320.078125 489.550781 L 325.859375 514.0625 L 331.640625 466.1875 L 337.421875 497.15625 L 343.199219 501.171875 L 348.980469 495.878906 L 354.761719 482.792969 L 360.539062 492.894531 L 366.320312 484.859375 L 372.101562 470.359375 L 377.878906 502.71875 L 383.660156 504.535156 L 389.441406 461.523438 L 395.21875 463.824219 L 401 451.242188 L 406.78125 514.957031 L 412.558594 455.160156 L 418.339844 520.585938 L 424.121094 503.621094 L 429.898438 490.21875 L 435.679688 475.167969 L 441.460938 476.566406 L 447.238281 489.261719 L 453.019531 501.070312 L 458.800781 472.816406 L 464.578125 493.753906 L 470.359375 487.175781 L 476.140625 489.265625 L 481.921875 491.875 L 487.699219 509.160156 L 493.480469 481.460938 L 499.261719 509.167969 L 505.039062 496.351562 L 510.820312 527.796875 L 516.601562 509.191406 L 522.378906 504 L 528.160156 482.167969 L 533.941406 497.484375 L 539.71875 481.359375 L 545.5 473.5625 L 551.28125 472.542969 L 557.058594 502.605469 L 562.839844 478.324219 L 568.621094 510.359375 L 574.398438 458.050781 L 580.179688 446.40625 L 585.960938 488.28125 L 591.738281 434.066406 L 597.519531 515.667969 L 603.300781 472.570312 L 609.078125 492.582031 L 614.859375 448.8125 L 620.640625 473.875 L 626.421875 447.917969 L 632.199219 430.355469 L 637.980469 466.785156 L 643.761719 387.113281 L 649.539062 372.222656 L 655.320312 390.40625 L 661.101562 351.988281 L 666.878906 339.332031 L 672.660156 276.34375 L 678.441406 204.4375 L 684.21875 126.179688 L 690 47.226562 L 690 54.855469 L 684.21875 152.679688 L 678.441406 235.578125 L 672.660156 315.203125 L 666.878906 379.511719 L 661.101562 386.011719 L 655.320312 429.015625 L 649.539062 410.875 L 643.761719 429.167969 L 637.980469 505.039062 L 632.199219 469.007812 L 626.421875 485.398438 L 620.640625 504.757812 L 614.859375 486.566406 L 609.078125 529.480469 L 603.300781 510.523438 L 597.519531 556.269531 L 591.738281 469.269531 L 585.960938 524.976562 L 580.179688 482.839844 L 574.398438 502.105469 L 568.621094 547.441406 L 562.839844 513.472656 L 557.058594 545.492188 L 551.28125 517.914062 L 545.5 528.136719 L 539.71875 523.617188 L 533.941406 534.164062 L 528.160156 530.414062 L 522.378906 549.9375 L 516.601562 544.058594 L 510.820312 566.386719 L 505.039062 527.269531 L 499.261719 549.96875 L 493.480469 519.191406 L 487.699219 547.136719 L 481.921875 527.53125 L 476.140625 533.34375 L 470.359375 523.226562 L 464.578125 532.804688 L 458.800781 505.339844 L 453.019531 533.585938 L 447.238281 517.585938 L 441.460938 510.59375 L 435.679688 508.5625 L 429.898438 531.15625 L 424.121094 543.6875 L 418.339844 558.789062 L 412.558594 502.679688 L 406.78125 550.28125 L 401 492.816406 L 395.21875 502.578125 L 389.441406 492.632812 L 383.660156 545.335938 L 377.878906 548.84375 L 372.101562 509.558594 L 366.320312 519.976562 L 360.539062 547.140625 L 354.761719 529.253906 L 348.980469 532.53125 L 343.199219 531.425781 L 337.421875 541.496094 L 331.640625 505.15625 L 325.859375 552.371094 L 320.078125 526.375 L 314.300781 570.839844 L 308.519531 540.34375 L 302.738281 528.496094 L 296.960938 540.972656 L 291.179688 547.859375 L 285.398438 539.546875 L 279.621094 499.457031 L 273.839844 515.1875 L 268.058594 534.089844 L 262.28125 531.925781 L 256.5 532.125 L 250.71875 548.019531 L 244.941406 541.621094 L 239.160156 543.855469 L 233.378906 513.289062 L 227.601562 514.199219 L 221.820312 535.300781 L 216.039062 545.789062 L 210.261719 549.179688 L 204.480469 505.9375 L 198.699219 521.355469 L 192.921875 552.117188 L 187.140625 525.722656 L 181.359375 505.3125 L 175.578125 536.148438 L 169.800781 495.855469 L 164.019531 539.742188 L 158.238281 518.894531 L 152.460938 521.125 L 146.679688 544.984375 L 140.898438 519.480469 L 135.121094 548.6875 L 129.339844 571.773438 L 123.558594 523.375 L 117.78125 514.316406 L 112 516.53125 Z M 112 508.902344 "/>
<g clip-path="url(#clip-0-6d1b3c43)">
<path fill="none" stroke-width="3" stroke-linecap="butt" stroke-linejoin="miter" stroke="rgb(100%, 0%, 0%)" stroke-opacity="1" stroke-miterlimit="2" d="M 112 512.71875 L 117.78125 495.101562 L 123.558594 504.082031 L 129.339844 546.855469 L 135.121094 526.363281 L 140.898438 496.121094 L 146.679688 532.605469 L 152.460938 503.398438 L 158.238281 500.402344 L 164.019531 518.714844 L 169.800781 480.0625 L 175.578125 519.078125 L 181.359375 485.792969 L 187.140625 508.195312 L 192.921875 530.839844 L 198.699219 503.621094 L 204.480469 482.746094 L 210.261719 531.160156 L 216.039062 526.441406 L 221.820312 515.5 L 227.601562 493.808594 L 233.378906 493.296875 L 239.160156 524.894531 L 244.941406 526.742188 L 250.71875 527.132812 L 256.5 510.019531 L 262.28125 513.128906 L 268.058594 512.476562 L 273.839844 499.070312 L 279.621094 480.195312 L 285.398438 516.273438 L 291.179688 527.125 L 296.960938 519.78125 L 302.738281 514.976562 L 308.519531 516.691406 L 314.300781 548.445312 L 320.078125 507.964844 L 325.859375 533.21875 L 331.640625 485.671875 L 337.421875 519.324219 L 343.199219 516.296875 L 348.980469 514.203125 L 354.761719 506.023438 L 360.539062 520.015625 L 366.320312 502.417969 L 372.101562 489.960938 L 377.878906 525.78125 L 383.660156 524.9375 L 389.441406 477.078125 L 395.21875 483.203125 L 401 472.027344 L 406.78125 532.621094 L 412.558594 478.917969 L 418.339844 539.6875 L 424.121094 523.65625 L 429.898438 510.6875 L 435.679688 491.863281 L 441.460938 493.582031 L 447.238281 503.421875 L 453.019531 517.328125 L 458.800781 489.078125 L 464.578125 513.28125 L 470.359375 505.199219 L 476.140625 511.304688 L 481.921875 509.703125 L 487.699219 528.148438 L 493.480469 500.328125 L 499.261719 529.566406 L 505.039062 511.8125 L 510.820312 547.089844 L 516.601562 526.625 L 522.378906 526.96875 L 528.160156 506.292969 L 533.941406 515.824219 L 539.71875 502.488281 L 545.5 500.847656 L 551.28125 495.226562 L 557.058594 524.050781 L 562.839844 495.898438 L 568.621094 528.902344 L 574.398438 480.078125 L 580.179688 464.621094 L 585.960938 506.628906 L 591.738281 451.667969 L 597.519531 535.96875 L 603.300781 491.546875 L 609.078125 511.03125 L 614.859375 467.6875 L 620.640625 489.316406 L 626.421875 466.660156 L 632.199219 449.683594 L 637.980469 485.910156 L 643.761719 408.140625 L 649.539062 391.550781 L 655.320312 409.710938 L 661.101562 369 L 666.878906 359.421875 L 672.660156 295.773438 L 678.441406 220.007812 L 684.21875 139.429688 L 690 51.042969 "/>
</g>
<g clip-path="url(#clip-1-6d1b3c43)">
<path fill="none" stroke-width="2" stroke-linecap="butt" stroke-linejoin="miter" stroke="rgb(100%, 0%, 0%)" stroke-opacity="0.6" stroke-miterlimit="2" d="M 112 516.53125 L 117.78125 514.316406 L 123.558594 523.375 L 129.339844 571.773438 L 135.121094 548.6875 L 140.898438 519.480469 L 146.679688 544.984375 L 152.460938 521.125 L 158.238281 518.894531 L 164.019531 539.742188 L 169.800781 495.855469 L 175.578125 536.148438 L 181.359375 505.3125 L 187.140625 525.722656 L 192.921875 552.117188 L 198.699219 521.355469 L 204.480469 505.9375 L 210.261719 549.179688 L 216.039062 545.789062 L 221.820312 535.300781 L 227.601562 514.199219 L 233.378906 513.289062 L 239.160156 543.855469 L 244.941406 541.621094 L 250.71875 548.019531 L 256.5 532.125 L 262.28125 531.929688 L 268.058594 534.089844 L 273.839844 515.1875 L 279.621094 499.457031 L 285.398438 539.546875 L 291.179688 547.859375 L 296.960938 540.972656 L 302.738281 528.496094 L 308.519531 540.34375 L 314.300781 570.839844 L 320.078125 526.375 L 325.859375 552.371094 L 331.640625 505.15625 L 337.421875 541.496094 L 343.199219 531.425781 L 348.980469 532.53125 L 354.761719 529.253906 L 360.539062 547.140625 L 366.320312 519.976562 L 372.101562 509.558594 L 377.878906 548.84375 L 383.660156 545.335938 L 389.441406 492.632812 L 395.21875 502.578125 L 401 492.816406 L 406.78125 550.28125 L 412.558594 502.679688 L 418.339844 558.789062 L 424.121094 543.6875 L 429.898438 531.15625 L 435.679688 508.5625 L 441.460938 510.59375 L 447.238281 517.585938 L 453.019531 533.585938 L 458.800781 505.339844 L 464.578125 532.804688 L 470.359375 523.226562 L 476.140625 533.34375 L 481.921875 527.53125 L 487.699219 547.136719 L 493.480469 519.191406 L 499.261719 549.96875 L 505.039062 527.269531 L 510.820312 566.386719 L 516.601562 544.058594 L 522.378906 549.9375 L 528.160156 530.414062 L 533.941406 534.164062 L 539.71875 523.617188 L 545.5 528.136719 L 551.28125 517.914062 L 557.058594 545.492188 L 562.839844 513.472656 L 568.621094 547.441406 L 574.398438 502.105469 L 580.179688 482.839844 L 585.960938 524.976562 L 591.738281 469.269531 L 597.519531 556.269531 L 603.300781 510.523438 L 609.078125 529.480469 L 614.859375 486.566406 L 620.640625 504.757812 L 626.421875 485.398438 L 632.199219 469.007812 L 637.980469 505.039062 L 643.761719 429.167969 L 649.539062 410.875 L 655.320312 429.015625 L 661.101562 386.011719 L 666.878906 379.511719 L 672.660156 315.203125 L 678.441406 235.578125 L 684.21875 152.679688 L 690 54.855469 "/>
</g>
<g clip-path="url(#clip-2-6d1b3c43)">
<path fill="none" stroke-width="2" stroke-linecap="butt" stroke-linejoin="miter" stroke="rgb(100%, 0%, 0%)" stroke-opacity="0.6" stroke-miterlimit="2" d="M 112 508.902344 L 117.78125 475.886719 L 123.558594 484.789062 L 129.339844 521.941406 L 135.121094 504.039062 L 140.898438 472.757812 L 146.679688 520.226562 L 152.460938 485.667969 L 158.238281 481.914062 L 164.019531 497.683594 L 169.800781 464.273438 L 175.578125 502.003906 L 181.359375 466.269531 L 187.140625 490.671875 L 192.921875 509.5625 L 198.699219 485.886719 L 204.480469 459.558594 L 210.261719 513.136719 L 216.039062 507.09375 L 221.820312 495.703125 L 227.601562 473.417969 L 233.378906 473.308594 L 239.160156 505.933594 L 244.941406 511.867188 L 250.71875 506.242188 L 256.5 487.910156 L 262.28125 494.328125 L 268.058594 490.863281 L 273.839844 482.957031 L 279.621094 460.933594 L 285.398438 493 L 291.179688 506.390625 L 296.960938 498.589844 L 302.738281 501.453125 L 308.519531 493.039062 L 314.300781 526.050781 L 320.078125 489.550781 L 325.859375 514.0625 L 331.640625 466.1875 L 337.421875 497.15625 L 343.199219 501.171875 L 348.980469 495.878906 L 354.761719 482.792969 L 360.539062 492.894531 L 366.320312 484.859375 L 372.101562 470.359375 L 377.878906 502.71875 L 383.660156 504.535156 L 389.441406 461.523438 L 395.21875 463.824219 L 401 451.242188 L 406.78125 514.957031 L 412.558594 455.160156 L 418.339844 520.585938 L 424.121094 503.621094 L 429.898438 490.21875 L 435.679688 475.167969 L 441.460938 476.566406 L 447.238281 489.261719 L 453.019531 501.070312 L 458.800781 472.816406 L 464.578125 493.753906 L 470.359375 487.175781 L 476.140625 489.265625 L 481.921875 491.875 L 487.699219 509.160156 L 493.480469 481.460938 L 499.261719 509.167969 L 505.039062 496.351562 L 510.820312 527.796875 L 516.601562 509.191406 L 522.378906 504 L 528.160156 482.167969 L 533.941406 497.484375 L 539.71875 481.359375 L 545.5 473.5625 L 551.28125 472.542969 L 557.058594 502.605469 L 562.839844 478.324219 L 568.621094 510.359375 L 574.398438 458.050781 L 580.179688 446.40625 L 585.960938 488.28125 L 591.738281 434.066406 L 597.519531 515.667969 L 603.300781 472.570312 L 609.078125 492.582031 L 614.859375 448.8125 L 620.640625 473.875 L 626.421875 447.917969 L 632.199219 430.355469 L 637.980469 466.785156 L 643.761719 387.113281 L 649.539062 372.222656 L 655.320312 390.40625 L 661.101562 351.988281 L 666.878906 339.332031 L 672.660156 276.34375 L 678.441406 204.4375 L 684.21875 126.179688 L 690 47.226562 "/>
</g>
<g clip-path="url(#clip-3-6d1b3c43)">
<path fill="none" stroke-width="3" stroke-linecap="butt" stroke-linejoin="miter" stroke="rgb(0%, 0%, 0%)" stroke-opacity="1" stroke-miterlimit="2" d="M 112 511.628906 L 366.320312 511.628906 L 372.101562 511.625 L 418.339844 511.625 L 424.121094 511.621094 L 435.679688 511.621094 L 441.460938 511.617188 L 447.238281 511.613281 L 458.800781 511.605469 L 464.578125 511.601562 L 470.359375 511.59375 L 481.921875 511.570312 L 487.699219 511.554688 L 493.480469 511.535156 L 499.261719 511.507812 L 505.039062 511.472656 L 510.820312 511.429688 L 516.601562 511.375 L 522.378906 511.300781 L 528.160156 511.207031 L 533.941406 511.089844 L 539.71875 510.9375 L 545.5 510.742188 L 551.28125 510.488281 L 557.058594 510.164062 L 562.839844 509.75 L 568.621094 509.214844 L 574.398438 508.53125 L 580.179688 507.652344 L 585.960938 506.523438 L 591.738281 505.074219 L 597.519531 503.210938 L 603.300781 500.820312 L 609.078125 497.75 L 614.859375 493.8125 L 620.640625 488.75 L 626.421875 482.253906 L 632.199219 473.910156 L 637.980469 463.195312 L 643.761719 449.441406 L 649.539062 431.777344 L 655.320312 409.101562 L 661.101562 379.980469 L 666.878906 342.589844 L 672.660156 294.578125 L 678.441406 232.929688 L 684.21875 153.773438 L 690 52.132812 "/>
</g>
<path fill-rule="nonzero" fill="rgb(100%, 100%, 100%)" fill-opacity="1" stroke-width="1" stroke-linecap="butt" stroke-linejoin="miter" stroke="rgb(0%, 0%, 0%)" stroke-opacity="1" stroke-miterlimit="2" d="M 118 121 L 252 121 L 252 27 L 118 27 Z M 118 121 "/>
<path fill="none" stroke-width="1" stroke-linecap="butt" stroke-linejoin="miter" stroke="rgb(0%, 0%, 0%)" stroke-opacity="1" stroke-miterlimit="1.154701" d="M 112 598.5 L 112 603.5 "/>
<path fill="none" stroke-width="1" stroke-linecap="butt" stroke-linejoin="miter" stroke="rgb(0%, 0%, 0%)" stroke-opacity="1" stroke-miterlimit="1.154701" d="M 227.601562 598.5 L 227.601562 603.5 "/>
<path fill="none" stroke-width="1" stroke-linecap="butt" stroke-linejoin="miter" stroke="rgb(0%, 0%, 0%)" stroke-opacity="1" stroke-miterlimit="1.154701" d="M 343.199219 598.5 L 343.199219 603.5 "/>
<path fill="none" stroke-width="1" stroke-linecap="butt" stroke-linejoin="miter" stroke="rgb(0%, 0%, 0%)" stroke-opacity="1" stroke-miterlimit="1.154701" d="M 458.800781 598.5 L 458.800781 603.5 "/>
<path fill="none" stroke-width="1" stroke-linecap="butt" stroke-linejoin="miter" stroke="rgb(0%, 0%, 0%)" stroke-opacity="1" stroke-miterlimit="1.154701" d="M 574.398438 598.5 L 574.398438 603.5 "/>
<path fill="none" stroke-width="1" stroke-linecap="butt" stroke-linejoin="miter" stroke="rgb(0%, 0%, 0%)" stroke-opacity="1" stroke-miterlimit="1.154701" d="M 690 598.5 L 690 603.5 "/>
<path fill="none" stroke-width="1" stroke-linecap="butt" stroke-linejoin="miter" stroke="rgb(0%, 0%, 0%)" stroke-opacity="1" stroke-miterlimit="1.154701" d="M 111.5 557.578125 L 106.5 557.578125 "/>
<path fill="none" stroke-width="1" stroke-linecap="butt" stroke-linejoin="miter" stroke="rgb(0%, 0%, 0%)" stroke-opacity="1" stroke-miterlimit="1.154701" d="M 111.5 419.726562 L 106.5 419.726562 "/>
<path fill="none" stroke-width="1" stroke-linecap="butt" stroke-linejoin="miter" stroke="rgb(0%, 0%, 0%)" stroke-opacity="1" stroke-miterlimit="1.154701" d="M 111.5 281.878906 L 106.5 281.878906 "/>
<path fill="none" stroke-width="1" stroke-linecap="butt" stroke-linejoin="miter" stroke="rgb(0%, 0%, 0%)" stroke-opacity="1" stroke-miterlimit="1.154701" d="M 111.5 144.03125 L 106.5 144.03125 "/>
<path fill="none" stroke-width="3" stroke-linecap="butt" stroke-linejoin="miter" stroke="rgb(0%, 0%, 0%)" stroke-opacity="1" stroke-miterlimit="2" d="M 123.949219 52.710938 L 143.949219 52.710938 "/>
<path fill="none" stroke-width="3" stroke-linecap="butt" stroke-linejoin="miter" stroke="rgb(100%, 0%, 0%)" stroke-opacity="1" stroke-miterlimit="2" d="M 123.949219 95.289062 L 143.949219 95.289062 "/>
<g fill="rgb(0%, 0%, 0%)" fill-opacity="1">
<use xlink:href="#glyph-7-0-6d1b3c43" x="148.948729" y="64.481452"/>
</g>
<g fill="rgb(0%, 0%, 0%)" fill-opacity="1">
<use xlink:href="#glyph-7-1-6d1b3c43" x="173.768065" y="64.481452"/>
</g>
<g fill="rgb(0%, 0%, 0%)" fill-opacity="1">
<use xlink:href="#glyph-7-2-6d1b3c43" x="192.942869" y="64.481452"/>
</g>
<g fill="rgb(0%, 0%, 0%)" fill-opacity="1">
<use xlink:href="#glyph-7-3-6d1b3c43" x="213.213377" y="64.481452"/>
</g>
<g fill="rgb(0%, 0%, 0%)" fill-opacity="1">
<use xlink:href="#glyph-7-4-6d1b3c43" x="232.255369" y="64.481452"/>
</g>
<g fill="rgb(0%, 0%, 0%)" fill-opacity="1">
<use xlink:href="#glyph-7-5-6d1b3c43" x="148.948729" y="107.059577"/>
</g>
<g fill="rgb(0%, 0%, 0%)" fill-opacity="1">
<use xlink:href="#glyph-7-6-6d1b3c43" x="183.762205" y="107.059577"/>
</g>
<g fill="rgb(0%, 0%, 0%)" fill-opacity="1">
<use xlink:href="#glyph-7-2-6d1b3c43" x="203.883299" y="107.059577"/>
</g>
<g fill="rgb(0%, 0%, 0%)" fill-opacity="1">
<use xlink:href="#glyph-7-7-6d1b3c43" x="224.153806" y="107.059577"/>
</g>
<path fill="none" stroke-width="1" stroke-linecap="butt" stroke-linejoin="miter" stroke="rgb(0%, 0%, 0%)" stroke-opacity="1" stroke-miterlimit="1.154701" d="M 111.5 598 L 690.5 598 "/>
<path fill="none" stroke-width="1" stroke-linecap="butt" stroke-linejoin="miter" stroke="rgb(0%, 0%, 0%)" stroke-opacity="1" stroke-miterlimit="1.154701" d="M 112 598.5 L 112 20.5 "/>
<path fill="none" stroke-width="1" stroke-linecap="butt" stroke-linejoin="miter" stroke="rgb(0%, 0%, 0%)" stroke-opacity="1" stroke-miterlimit="1.154701" d="M 111.5 21 L 690.5 21 "/>
<path fill="none" stroke-width="1" stroke-linecap="butt" stroke-linejoin="miter" stroke="rgb(0%, 0%, 0%)" stroke-opacity="1" stroke-miterlimit="1.154701" d="M 690 598.5 L 690 20.5 "/>
</svg>
